<?xml version="1.0" encoding="UTF-8" standalone="no"?>
<!-- Generator: Adobe Illustrator 17.1.0, SVG Export Plug-In . SVG Version: 6.00 Build 0)  -->

<svg
   xmlns:dc="http://purl.org/dc/elements/1.1/"
   xmlns:cc="http://creativecommons.org/ns#"
   xmlns:rdf="http://www.w3.org/1999/02/22-rdf-syntax-ns#"
   xmlns:svg="http://www.w3.org/2000/svg"
   xmlns="http://www.w3.org/2000/svg"
   xmlns:sodipodi="http://sodipodi.sourceforge.net/DTD/sodipodi-0.dtd"
   xmlns:inkscape="http://www.inkscape.org/namespaces/inkscape"
   version="1.1"
   id="Layer_1"
   x="0px"
   y="0px"
   viewBox="0 0 1024 500"
   enable-background="new 0 0 1000 1000"
   xml:space="preserve"
   inkscape:version="0.91 r13725"
   sodipodi:docname="appbanner.svg"
   inkscape:export-filename="C:\p\bulb-ionic\appbanner.png"
   inkscape:export-xdpi="90"
   inkscape:export-ydpi="90"
   width="1024"
   height="500"><metadata
     id="metadata43"><rdf:RDF><cc:Work
         rdf:about=""><dc:format>image/svg+xml</dc:format><dc:type
           rdf:resource="http://purl.org/dc/dcmitype/StillImage" /><dc:title></dc:title></cc:Work></rdf:RDF></metadata><defs
     id="defs41" /><sodipodi:namedview
     pagecolor="#ffffff"
     bordercolor="#666666"
     borderopacity="1"
     objecttolerance="10"
     gridtolerance="10"
     guidetolerance="10"
     inkscape:pageopacity="1"
     inkscape:pageshadow="2"
     inkscape:window-width="1366"
     inkscape:window-height="705"
     id="namedview39"
     showgrid="false"
     inkscape:zoom="0.90509668"
     inkscape:cx="501.62757"
     inkscape:cy="268.98453"
     inkscape:window-x="-8"
     inkscape:window-y="-8"
     inkscape:window-maximized="1"
     inkscape:current-layer="Layer_1" /><g
     id="g3"
     transform="matrix(0.47401015,0,0,0.47401015,-30.328973,9.057776)"><path
       d="m 416.2,846.9 c -7.9,0 -14.3,-6.5 -14.3,-14.3 0,-7.9 6.4,-14.4 14.3,-14.4 l 167.6,0 c 7.9,0 14.4,6.5 14.4,14.4 0,7.9 -6.5,14.3 -14.4,14.3 l -167.6,0 z m 0,0"
       id="path5"
       inkscape:connector-curvature="0"
       style="clip-rule:evenodd;fill:#ffdd2a;fill-rule:evenodd" /><path
       d="m 434.8,904.3 c -7.9,0 -14.4,-6.6 -14.4,-14.5 0,-7.9 6.5,-14.4 14.4,-14.4 l 130.4,0 c 7.9,0 14.5,6.5 14.5,14.4 0,7.9 -6.6,14.5 -14.5,14.5 l -130.4,0 z m 0,0"
       id="path7"
       inkscape:connector-curvature="0"
       style="clip-rule:evenodd;fill:#ffdd2a;fill-rule:evenodd" /><path
       d="m 514.5,108.9 c 0,8.1 -6.5,14.5 -14.4,14.5 -7.9,0 -14.5,-6.5 -14.5,-14.5 l 0,-55.9 c 0,-7.9 6.6,-14.4 14.5,-14.4 7.9,0 14.4,6.5 14.4,14.4 l 0,55.9 z m 0,0"
       id="path9"
       inkscape:connector-curvature="0"
       style="clip-rule:evenodd;fill:#ffdd2a;fill-rule:evenodd" /><path
       d="m 681.5,262.8 c 46.3,46.3 75.1,110.6 75.1,181.4 0,27.7 -4.4,54.4 -12.6,79.5 -8.5,25.9 -21,50.2 -36.7,71.7 -26.5,36.2 -47.9,60 -64.7,78.3 -30.1,33.3 -43.1,47.8 -43.1,96.3 0,7.9 -6.5,14.4 -14.5,14.4 l -168.7,0 c -8.1,0 -14.5,-6.5 -14.5,-14.4 0,-48.1 -13.4,-62.7 -43.3,-95.5 -16.9,-18.3 -38.6,-42.1 -65.7,-79.2 -15.7,-21.6 -28.3,-45.8 -36.6,-71.7 -8.2,-25.1 -12.6,-51.9 -12.6,-79.5 0,-34.8 6.9,-67.9 19.5,-98.1 l 0.3,-0.6 c 12.9,-31.2 32,-59.4 55.3,-82.7 23.6,-23.6 51.9,-42.5 83.3,-55.6 30.3,-12.6 63.5,-19.5 98.1,-19.5 34.6,0 67.7,6.9 98.1,19.5 31.4,13 59.7,32.1 83.3,55.7 l 0,0 z"
       id="path11"
       inkscape:connector-curvature="0"
       style="clip-rule:evenodd;fill:#ffdd2a;fill-rule:evenodd" /><path
       d="m 727.7,444.2 c 0,-62.9 -25.5,-119.8 -66.6,-161 -21.1,-21 -46.2,-38 -73.9,-49.4 -26.8,-11.2 -56.2,-17.3 -87.1,-17.3 -30.9,0 -60.4,6.2 -87.1,17.3 -27.7,11.5 -52.8,28.5 -73.9,49.4 -20.8,20.8 -37.7,45.7 -49.1,73.2 l -0.3,0.7 c -11.2,26.7 -17.3,56.2 -17.3,87.1 0,24.6 4,48.4 11.2,70.6 7.6,23 18.6,44.6 32.6,63.6 26.1,35.6 47.4,58.8 63.8,76.9 l 0,0.2 c 32,35 47.9,52.5 50.4,100.3 l 140.7,0 c 2.5,-48.1 18.2,-65.4 50.3,-101.1 16.1,-17.9 36.8,-40.8 62.8,-76.3 13.9,-19.1 25.1,-40.5 32.6,-63.5 6.9,-22.3 10.9,-46.1 10.9,-70.7 l 0,0 z"
       id="path13"
       inkscape:connector-curvature="0"
       style="clip-rule:evenodd;fill:#ffdd2a;fill-rule:evenodd" /><path
       d="M 727.7,444.2"
       id="path15"
       inkscape:connector-curvature="0"
       style="clip-rule:evenodd;fill:#ffdd2a;fill-rule:evenodd" /><path
       d="m 453.5,961.3 c -7.9,0 -14.4,-6.5 -14.4,-14.4 0,-7.9 6.5,-14.3 14.4,-14.3 l 93.1,0 c 8.1,0 14.5,6.4 14.5,14.3 0,7.9 -6.5,14.4 -14.5,14.4 l -93.1,0 z m 0,0"
       id="path17"
       inkscape:connector-curvature="0"
       style="clip-rule:evenodd;fill:#ffdd2a;fill-rule:evenodd" /><path
       d="m 677,160.1 c -4,6.9 -12.8,9.2 -19.7,5.3 -6.9,-3.8 -9.2,-12.6 -5.3,-19.5 l 28,-48.4 c 3.8,-6.9 12.6,-9.2 19.5,-5.3 6.9,3.9 9.2,12.8 5.3,19.5 L 677,160.1 Z m 0,0"
       id="path19"
       inkscape:connector-curvature="0"
       style="clip-rule:evenodd;fill:#ffdd2a;fill-rule:evenodd" /><path
       d="m 348,145.9 c 3.9,6.9 1.6,15.7 -5.3,19.5 -6.7,3.9 -15.5,1.6 -19.5,-5.3 l -28,-48.4 c -4,-6.7 -1.5,-15.5 5.3,-19.5 6.9,-4 15.7,-1.6 19.7,5.3 l 27.8,48.4 z m 0,0"
       id="path21"
       inkscape:connector-curvature="0"
       style="clip-rule:evenodd;fill:#ffdd2a;fill-rule:evenodd" /><path
       d="m 222.4,261 c 6.8,3.8 9.1,12.6 5.3,19.5 -4,6.9 -12.8,9.2 -19.7,5.3 l -48.4,-27.9 c -6.9,-4 -9.2,-12.8 -5.3,-19.7 3.9,-6.9 12.8,-9.2 19.6,-5.3 l 48.5,28.1 z m 0,0"
       id="path23"
       inkscape:connector-curvature="0"
       style="clip-rule:evenodd;fill:#ffdd2a;fill-rule:evenodd" /><path
       d="m 791.9,285.8 c -6.7,3.9 -15.5,1.6 -19.5,-5.3 -4,-6.9 -1.6,-15.7 5.3,-19.5 l 48.4,-28 c 6.9,-4 15.7,-1.6 19.5,5.3 3.9,6.9 1.6,15.7 -5.3,19.7 l -48.4,27.8 z m 0,0"
       id="path25"
       inkscape:connector-curvature="0"
       style="clip-rule:evenodd;fill:#ffdd2a;fill-rule:evenodd" /></g><g
     id="g27"
     transform="matrix(0.63507617,0,0,0.63507617,388.75525,-176.8047)"><path
       d="M 944.2,671.3 C 944.2,801.8 838.4,907.6 707.9,907.6 577.4,907.6 471.6,801.8 471.6,671.3 471.6,540.8 577.4,435 707.9,435 838.4,435 944.2,540.8 944.2,671.3 Z"
       id="path29"
       inkscape:connector-curvature="0"
       style="fill:#1e93d1" /><path
       d="m 55.9,493.9 c -0.8,-5.6 1.6,-8.1 7,-9.8 0,0 208.5,-72.8 241.8,-82.7 0.7,-0.2 1.4,-0.4 1.9,-0.6 1.3,-0.4 3.3,-0.4 4.5,-0.1 23.3,6.5 228.9,78.6 244.1,83.3 5.4,1.7 7.8,4.2 7,9.8 -2.8,19.6 -37.7,306.1 -37.7,317.4 -0.6,5.4 -2.3,9 -7.3,11.8 0,0 -186.3,103.6 -206.7,111.3 -0.8,0.3 -2.6,0.3 -3.6,-0.1 -18.6,-7.1 -146.4,-78.3 -206,-111.2 -5,-2.7 -6.7,-6.4 -7.3,-11.8 C 91.3,789.6 55.9,493.9 55.9,493.9 Z"
       id="path31"
       inkscape:connector-curvature="0"
       style="clip-rule:evenodd;fill:#eb5a5c;fill-rule:evenodd" /><path
       d="m 724.6,807.4 c -36.6,0 -70.9,-14 -96.6,-39.5 -25.7,-25.5 -39.9,-59.7 -39.9,-96.2 0,-36.6 14.2,-70.9 39.9,-96.6 25.7,-25.7 60,-39.9 96.6,-39.9 35.2,0 63.4,10.8 91.4,35.1 2.4,2.1 8.5,8.1 8.5,8.1 0,0 -5.7,5.7 -7.9,7.9 l -16,16.4 c -5.9,6.4 -7.8,6.3 -14.7,0.3 -16.9,-14.8 -39.7,-23.6 -60.9,-23.6 -24,0 -46.4,9.7 -63,27.2 -16.3,17.3 -25.3,40.2 -25.3,64.4 0,24.2 9.1,46.9 25.5,64.2 16.7,17.5 39.1,27.1 63.2,27.1 26.7,0 44.6,-11.8 60.8,-23.4 6.9,-4.9 7.1,-5.8 13.7,-0.3 l 0.2,0.2 16.8,16.5 c 1.9,1.7 7.6,7.4 7.6,7.4 0,0 -5.6,5.8 -7.9,8.1 -24.8,23.9 -56.6,36.6 -92,36.6 z"
       id="path33"
       inkscape:connector-curvature="0"
       style="fill:#ffffff" /><path
       d="m 254.2,729.2 c -17.9,-0.2 -14.9,-1.5 -21.1,12 -8.9,19.6 -18.5,39.2 -27.3,59.2 -2.4,5.3 -3,6.3 -7,6.3 -17.5,0.4 -29.2,0.2 -48.1,0.2 2.8,-6.7 6.7,-14.2 9.6,-20.7 44.8,-99.6 136.6,-299.2 147.9,-321.8 0.6,-1.2 1.5,-1.3 2,-0.1 18.8,40.8 156.2,340.4 156.8,342.6 -7.2,0 -32.2,0 -46.4,0 -5.6,0 -5.2,-0.9 -7.3,-5.5 -10.3,-22.6 -20.8,-45.4 -30.9,-68 -0.9,-1.9 -0.8,-4.2 -8.2,-4.2 -22.8,0 -102.5,0.2 -120,0 z m 105.5,-47.7 c -0.3,-1.9 -46.4,-98.5 -50.1,-106.4 -0.2,-0.3 -0.3,-0.3 -0.5,0 -2.6,5.1 -43.3,92.8 -48.9,106.4 15.9,0 81.9,0 99.5,0 z"
       id="path35"
       inkscape:connector-curvature="0"
       style="clip-rule:evenodd;fill:#ffffff;fill-rule:evenodd" /></g><path
     stroke-miterlimit="10"
     d="m 261.48661,185.91342 c 0,-2.08798 -0.94908,-4.17595 -2.37269,-5.59957 l -55.90073,-54.09747 c -2.18288,-2.18288 -5.59956,-2.84724 -8.4468,-1.51853 -2.84723,1.1389 -4.74539,3.98613 -4.74539,7.11809 l 0,73.55359 -25.15058,-25.62512 c -2.94215,-3.13196 -7.87735,-3.13196 -11.00931,-0.0949 -3.13196,2.94214 -3.13196,7.87735 -0.0949,11.00931 l 36.2548,36.91915 0,8.25699 -44.13215,42.04418 c -3.13196,2.94214 -3.22687,7.87735 -0.28473,11.00931 2.94215,3.13196 7.87736,3.22686 11.00932,0.28472 l 33.40756,-31.88904 0,77.16009 c 0,3.13195 1.80325,5.97919 4.74539,7.11808 1.04399,0.37964 2.08797,0.66436 2.94215,0.66436 1.89815,0 3.89122,-0.75926 5.40974,-2.18288 l 55.42619,-53.62294 c 1.42362,-1.42362 2.3727,-3.32177 2.3727,-5.40975 0,-2.08797 -0.75927,-3.98613 -2.18289,-5.59956 l -42.3289,-43.08816 42.70854,-40.62057 c 1.42361,-1.61343 2.37269,-3.7014 2.37269,-5.78937 l 0,0 z m -19.26629,94.62312 -36.63443,35.49554 0,-72.60451 36.63443,37.10897 z m -36.72934,-59.50722 0,-70.80126 36.91915,35.78026 -36.91915,35.021 z m 0,0"
     id="path37"
     inkscape:connector-curvature="0"
     style="fill:#ffffff;stroke:#ffffff;stroke-width:2.84723568;stroke-miterlimit:10" /></svg>