<?xml version="1.0" encoding="utf-8"?>
<!-- Generator: Adobe Illustrator 17.1.0, SVG Export Plug-In . SVG Version: 6.00 Build 0)  -->
<!DOCTYPE svg PUBLIC "-//W3C//DTD SVG 1.1//EN" "http://www.w3.org/Graphics/SVG/1.1/DTD/svg11.dtd">
<svg version="1.1" id="Layer_1" xmlns="http://www.w3.org/2000/svg" xmlns:xlink="http://www.w3.org/1999/xlink" x="0px" y="0px"
	 viewBox="0 0 1000 1000" enable-background="new 0 0 1000 1000" xml:space="preserve">
<g>
	<path fill-rule="evenodd" clip-rule="evenodd" fill="#FFDD2A" d="M416.2,846.9c-7.9,0-14.3-6.5-14.3-14.3c0-7.9,6.4-14.4,14.3-14.4
		h167.6c7.9,0,14.4,6.5,14.4,14.4c0,7.9-6.5,14.3-14.4,14.3H416.2z M416.2,846.9"/>
	<path fill-rule="evenodd" clip-rule="evenodd" fill="#FFDD2A" d="M434.8,904.3c-7.9,0-14.4-6.6-14.4-14.5c0-7.9,6.5-14.4,14.4-14.4
		h130.4c7.9,0,14.5,6.5,14.5,14.4c0,7.9-6.6,14.5-14.5,14.5H434.8z M434.8,904.3"/>
	<path fill-rule="evenodd" clip-rule="evenodd" fill="#FFDD2A" d="M514.5,108.9c0,8.1-6.5,14.5-14.4,14.5c-7.9,0-14.5-6.5-14.5-14.5
		V53c0-7.9,6.6-14.4,14.5-14.4c7.9,0,14.4,6.5,14.4,14.4V108.9z M514.5,108.9"/>
	<path fill-rule="evenodd" clip-rule="evenodd" fill="#FFDD2A" d="M681.5,262.8c46.3,46.3,75.1,110.6,75.1,181.4
		c0,27.7-4.4,54.4-12.6,79.5c-8.5,25.9-21,50.2-36.7,71.7c-26.5,36.2-47.9,60-64.7,78.3c-30.1,33.3-43.1,47.8-43.1,96.3
		c0,7.9-6.5,14.4-14.5,14.4H416.3c-8.1,0-14.5-6.5-14.5-14.4c0-48.1-13.4-62.7-43.3-95.5c-16.9-18.3-38.6-42.1-65.7-79.2
		c-15.7-21.6-28.3-45.8-36.6-71.7c-8.2-25.1-12.6-51.9-12.6-79.5c0-34.8,6.9-67.9,19.5-98.1l0.3-0.6c12.9-31.2,32-59.4,55.3-82.7
		c23.6-23.6,51.9-42.5,83.3-55.6c30.3-12.6,63.5-19.5,98.1-19.5c34.6,0,67.7,6.9,98.1,19.5C629.6,220.1,657.9,239.2,681.5,262.8
		L681.5,262.8z"/>
	<path fill-rule="evenodd" clip-rule="evenodd" fill="#FFDD2A" d="M727.7,444.2c0-62.9-25.5-119.8-66.6-161
		c-21.1-21-46.2-38-73.9-49.4c-26.8-11.2-56.2-17.3-87.1-17.3c-30.9,0-60.4,6.2-87.1,17.3c-27.7,11.5-52.8,28.5-73.9,49.4
		c-20.8,20.8-37.7,45.7-49.1,73.2l-0.3,0.7c-11.2,26.7-17.3,56.2-17.3,87.1c0,24.6,4,48.4,11.2,70.6c7.6,23,18.6,44.6,32.6,63.6
		c26.1,35.6,47.4,58.8,63.8,76.9v0.2c32,35,47.9,52.5,50.4,100.3h140.7c2.5-48.1,18.2-65.4,50.3-101.1
		c16.1-17.9,36.8-40.8,62.8-76.3c13.9-19.1,25.1-40.5,32.6-63.5C723.7,492.6,727.7,468.8,727.7,444.2L727.7,444.2z"/>
	<path fill-rule="evenodd" clip-rule="evenodd" fill="#FFDD2A" d="M727.7,444.2"/>
	<path fill-rule="evenodd" clip-rule="evenodd" fill="#FFDD2A" d="M453.5,961.3c-7.9,0-14.4-6.5-14.4-14.4s6.5-14.3,14.4-14.3h93.1
		c8.1,0,14.5,6.4,14.5,14.3s-6.5,14.4-14.5,14.4H453.5z M453.5,961.3"/>
	<path fill-rule="evenodd" clip-rule="evenodd" fill="#FFDD2A" d="M677,160.1c-4,6.9-12.8,9.2-19.7,5.3c-6.9-3.8-9.2-12.6-5.3-19.5
		l28-48.4c3.8-6.9,12.6-9.2,19.5-5.3c6.9,3.9,9.2,12.8,5.3,19.5L677,160.1z M677,160.1"/>
	<path fill-rule="evenodd" clip-rule="evenodd" fill="#FFDD2A" d="M348,145.9c3.9,6.9,1.6,15.7-5.3,19.5c-6.7,3.9-15.5,1.6-19.5-5.3
		l-28-48.4c-4-6.7-1.5-15.5,5.3-19.5c6.9-4,15.7-1.6,19.7,5.3L348,145.9z M348,145.9"/>
	<path fill-rule="evenodd" clip-rule="evenodd" fill="#FFDD2A" d="M222.4,261c6.8,3.8,9.1,12.6,5.3,19.5c-4,6.9-12.8,9.2-19.7,5.3
		l-48.4-27.9c-6.9-4-9.2-12.8-5.3-19.7c3.9-6.9,12.8-9.2,19.6-5.3L222.4,261z M222.4,261"/>
	<path fill-rule="evenodd" clip-rule="evenodd" fill="#FFDD2A" d="M791.9,285.8c-6.7,3.9-15.5,1.6-19.5-5.3
		c-4-6.9-1.6-15.7,5.3-19.5l48.4-28c6.9-4,15.7-1.6,19.5,5.3c3.9,6.9,1.6,15.7-5.3,19.7L791.9,285.8z M791.9,285.8"/>
</g>
<g>
	<path fill="#1E93D1" d="M944.2,671.3c0,130.5-105.8,236.3-236.3,236.3c-130.5,0-236.3-105.8-236.3-236.3
		c0-130.5,105.8-236.3,236.3-236.3C838.4,435,944.2,540.8,944.2,671.3z"/>
	<path fill-rule="evenodd" clip-rule="evenodd" fill="#EB5A5C" d="M55.9,493.9c-0.8-5.6,1.6-8.1,7-9.8c0,0,208.5-72.8,241.8-82.7
		c0.7-0.2,1.4-0.4,1.9-0.6c1.3-0.4,3.3-0.4,4.5-0.1c23.3,6.5,228.9,78.6,244.1,83.3c5.4,1.7,7.8,4.2,7,9.8
		c-2.8,19.6-37.7,306.1-37.7,317.4c-0.6,5.4-2.3,9-7.3,11.8c0,0-186.3,103.6-206.7,111.3c-0.8,0.3-2.6,0.3-3.6-0.1
		c-18.6-7.1-146.4-78.3-206-111.2c-5-2.7-6.7-6.4-7.3-11.8C91.3,789.6,55.9,493.9,55.9,493.9z"/>
	<path fill="#FFFFFF" d="M724.6,807.4c-36.6,0-70.9-14-96.6-39.5c-25.7-25.5-39.9-59.7-39.9-96.2c0-36.6,14.2-70.9,39.9-96.6
		c25.7-25.7,60-39.9,96.6-39.9c35.2,0,63.4,10.8,91.4,35.1c2.4,2.1,8.5,8.1,8.5,8.1s-5.7,5.7-7.9,7.9l-16,16.4
		c-5.9,6.4-7.8,6.3-14.7,0.3c-16.9-14.8-39.7-23.6-60.9-23.6c-24,0-46.4,9.7-63,27.2c-16.3,17.3-25.3,40.2-25.3,64.4
		c0,24.2,9.1,46.9,25.5,64.2c16.7,17.5,39.1,27.1,63.2,27.1c26.7,0,44.6-11.8,60.8-23.4c6.9-4.9,7.1-5.8,13.7-0.3l0.2,0.2l16.8,16.5
		c1.9,1.7,7.6,7.4,7.6,7.4s-5.6,5.8-7.9,8.1C791.8,794.7,760,807.4,724.6,807.4z"/>
	<path fill-rule="evenodd" clip-rule="evenodd" fill="#FFFFFF" d="M254.2,729.2c-17.9-0.2-14.9-1.5-21.1,12
		c-8.9,19.6-18.5,39.2-27.3,59.2c-2.4,5.3-3,6.3-7,6.3c-17.5,0.4-29.2,0.2-48.1,0.2c2.8-6.7,6.7-14.2,9.6-20.7
		c44.8-99.6,136.6-299.2,147.9-321.8c0.6-1.2,1.5-1.3,2-0.1C329,505.1,466.4,804.7,467,806.9c-7.2,0-32.2,0-46.4,0
		c-5.6,0-5.2-0.9-7.3-5.5c-10.3-22.6-20.8-45.4-30.9-68c-0.9-1.9-0.8-4.2-8.2-4.2C351.4,729.2,271.7,729.4,254.2,729.2z
		 M359.7,681.5c-0.3-1.9-46.4-98.5-50.1-106.4c-0.2-0.3-0.3-0.3-0.5,0c-2.6,5.1-43.3,92.8-48.9,106.4
		C276.1,681.5,342.1,681.5,359.7,681.5z"/>
</g>
<path fill="#FFFFFF" stroke="#FFFFFF" stroke-width="3" stroke-miterlimit="10" d="M562.2,277.7c0-2.2-1-4.4-2.5-5.9l-58.9-57
	c-2.3-2.3-5.9-3-8.9-1.6c-3,1.2-5,4.2-5,7.5v77.5l-26.5-27c-3.1-3.3-8.3-3.3-11.6-0.1c-3.3,3.1-3.3,8.3-0.1,11.6l38.2,38.9v8.7
	l-46.5,44.3c-3.3,3.1-3.4,8.3-0.3,11.6c3.1,3.3,8.3,3.4,11.6,0.3l35.2-33.6v81.3c0,3.3,1.9,6.3,5,7.5c1.1,0.4,2.2,0.7,3.1,0.7
	c2,0,4.1-0.8,5.7-2.3l58.4-56.5c1.5-1.5,2.5-3.5,2.5-5.7c0-2.2-0.8-4.2-2.3-5.9l-44.6-45.4l45-42.8
	C561.2,282.1,562.2,279.9,562.2,277.7L562.2,277.7z M541.9,377.4l-38.6,37.4v-76.5L541.9,377.4z M503.2,314.7v-74.6l38.9,37.7
	L503.2,314.7z M503.2,314.7"/>
</svg>
